<?xml version="1.0" encoding="UTF-8" standalone="no"?>
<svg
   width="16"
   height="16"
   viewBox="0 0 16 16"
   fill="none"
   version="1.1"
   id="svg133"
   sodipodi:docname="favicon.svg"
   inkscape:version="1.1.2 (b8e25be833, 2022-02-05)"
   xmlns:inkscape="http://www.inkscape.org/namespaces/inkscape"
   xmlns:sodipodi="http://sodipodi.sourceforge.net/DTD/sodipodi-0.dtd"
   xmlns="http://www.w3.org/2000/svg"
   xmlns:svg="http://www.w3.org/2000/svg">
  <sodipodi:namedview
     id="namedview135"
     pagecolor="#505050"
     bordercolor="#eeeeee"
     borderopacity="1"
     inkscape:pageshadow="0"
     inkscape:pageopacity="0"
     inkscape:pagecheckerboard="0"
     showgrid="false"
     fit-margin-top="0"
     fit-margin-left="0"
     fit-margin-right="0"
     fit-margin-bottom="0"
     inkscape:zoom="25.114828"
     inkscape:cx="12.442848"
     inkscape:cy="7.9036973"
     inkscape:window-width="1920"
     inkscape:window-height="991"
     inkscape:window-x="-9"
     inkscape:window-y="-9"
     inkscape:window-maximized="1"
     inkscape:current-layer="g126" />
  <g
     clip-path="url(#clip0_356_3101)"
     id="g126">
    <g
       id="g1081"
       transform="translate(0,0.49924655)">
      <path
         d="M 5.7561291,11.247477 C 5.1058799,10.84554 4.5593974,10.291329 4.1621501,9.631026 3.7477433,10.232768 3.4543677,10.844902 3.3089479,11.435315 4.1672146,11.547597 5.0412414,11.4917 5.8888575,11.327159 5.844102,11.300748 5.7998717,11.2749 5.7561291,11.247477 Z"
         fill="#a6cbde"
         id="path28"
         style="stroke-width:0.999999" />
      <path
         d="M 0.1016888,8.4523016 C 0.07270689,8.2592865 0.04575904,8.0662713 0.02491235,7.9007172 0.04575904,8.0667965 0.07321522,8.2598117 0.1016888,8.4523016 Z"
         fill="#a6cbde"
         id="path30"
         style="stroke-width:0.999999" />
      <path
         d="M 12.930892,7.1571304 C 13.733752,6.192092 14.431833,4.9916464 14.467435,3.6944643 14.496922,2.6078583 13.987467,1.6428462 13.168362,0.97018545 12.922263,0.76075367 12.664572,0.56587774 12.396526,0.38652181 12.157105,0.23969071 11.907667,0.1105191 11.650126,0 l -0.0102,0.01034865 c 1.339777,1.10368095 1.284367,2.73876525 0.406776,4.31071535 0.548058,0.7751745 0.855795,1.6993964 0.883706,2.6539306 h -0.0036 c 0.0036,0.062088 0.0041,0.1210612 0.0041,0.1821358 z"
         fill="#a6cbde"
         id="path32"
         style="stroke-width:0.999999" />
      <path
         d="m 1.0468888,10.458759 c 0.1814681,0.17392 0.3829204,0.324881 0.5999715,0.449656 C 1.656014,10.290091 1.8278706,9.6370659 2.1461637,8.9778882 1.8651831,8.8937043 1.5956447,8.7741062 1.3438246,8.6218699 1.1099367,9.2391808 1.0016344,9.8585551 1.0468888,10.458759 Z"
         fill="#a6cbde"
         id="path34"
         style="stroke-width:0.999999" />
      <path
         d="M 0,7.1002575 C 0.00354702,6.8544961 0.02128213,6.6252789 0.05067164,6.2392485 0.01621496,6.6330445 0,6.8643251 0,7.1002575 Z"
         fill="#a6cbde"
         id="path36"
         style="stroke-width:0.999999" />
      <path
         d="m 0.26819806,7.320021 c -0.0866948,0.3656596 -0.12735813,0.7410357 -0.1210117,1.1171245 0.002349,0.3635589 0.0799653,0.7225408 0.2277868,1.053499 C 0.3022644,8.9701225 0.35616046,8.4107724 0.52344066,7.8348782 0.41903989,7.6739009 0.33338505,7.5011438 0.26819806,7.320021 Z"
         fill="#a6cbde"
         id="path38"
         style="stroke-width:0.999999" />
      <path
         d="m 1.1437716,11.050822 c 0.090318,0.350316 0.2351971,0.683601 0.4291352,0.987285 -0.02288,-0.03313 -0.046271,-0.06832 -0.070168,-0.103504 0.1647476,0.248388 0.365881,0.469652 0.5964151,0.656102 C 1.8989505,12.268525 1.7620241,11.909881 1.6959525,11.534617 1.495303,11.394086 1.3101698,11.23187 1.1437716,11.050822 Z"
         fill="#a6cbde"
         id="path40"
         style="stroke-width:0.999999" />
      <path
         d="M 15.435362,4.1715288 C 15.172231,3.5496298 14.848588,2.9561072 14.469273,2.3998296 15.409402,3.8714081 14.810961,5.7217277 13.923203,7.0634552 13.575926,7.5818763 13.179279,8.064208 12.739039,8.5034722 12.396376,9.6676408 11.634107,10.657026 10.604918,11.273437 9.5757663,11.889848 8.3557378,12.08774 7.1892433,11.827422 5.7772876,12.260534 4.3825888,12.404892 3.20858,12.160144 3.192929,12.537433 3.260512,12.913485 3.4063671,13.260724 8.0734742,14.662964 17.083738,9.3039319 15.435362,4.1715288 Z"
         fill="#a6cbde"
         id="path42"
         style="stroke-width:0.999999" />
      <path
         d="m 0.90270705,10.942591 0.0315239,0.06674 C 1.0201592,11.160929 1.1243913,11.334774 1.2316769,11.507606 1.1249015,11.334286 1.0216862,11.159879 0.93524761,11.00828 0.92457081,10.98708 0.91541711,10.96484 0.90270701,10.94259 Z"
         fill="#a6cbde"
         id="path44"
         style="stroke-width:0.999999" />
      <path
         d="m 0.68687894,10.476991 c -0.039661,-0.09004 -0.0777951,-0.178496 -0.11389584,-0.258704 0.0371174,0.07863 0.0737284,0.168668 0.11389584,0.258704 z"
         fill="#a6cbde"
         id="path46"
         style="stroke-width:0.999999" />
      <path
         d="M 15.992949,6.6997838 C 15.975167,6.3893089 15.899386,5.8936219 15.88363,5.8170536 16.28733,10.000475 8.4093844,15.617723 3.7595755,13.837219 c 0.2598296,0.31824 0.616223,0.599191 1.0789343,0.827921 l -0.047307,-0.02176 c 0.3879812,0.187313 0.8425141,0.270634 1.2660596,0.318728 0.4551706,0.0496 0.9140553,0.05237 1.3697887,0.0083 1.0168843,-0.09157 2.0195503,-0.371512 2.9627549,-0.768384 1.910232,-0.80046 3.745245,-2.138549 4.813,-3.973862 0.284589,-0.4817691 0.502064,-1.0013907 0.646235,-1.5440091 0.16728,-0.6452596 0.158126,-1.3220695 0.143908,-1.9843611 z"
         fill="#a6cbde"
         id="path48"
         style="stroke-width:0.999999" />
      <path
         d="m 4.2047297,14.358228 c -0.1439079,-0.08122 -0.3091619,-0.182661 -0.5755829,-0.346677 0.2486388,0.16094 0.3955855,0.250976 0.5755829,0.346677 z"
         fill="#a6cbde"
         id="path50"
         style="stroke-width:0.999999" />
      <path
         d="M 3.0205806,13.562908 C 2.8894016,13.453702 2.7388985,13.318648 2.4963672,13.10136 2.722118,13.313996 2.8497406,13.428867 3.0205806,13.562908 Z"
         fill="#a6cbde"
         id="path52"
         style="stroke-width:0.999999" />
      <path
         d="m 5.0645382,10.727892 0.057961,0.05173 c -0.019845,-0.01707 -0.038115,-0.03414 -0.057961,-0.05173 z"
         fill="#005c8d"
         id="path54"
         style="stroke-width:0.999999" />
      <path
         d="m 5.8777155,11.319881 c -0.038641,-0.02225 -0.076756,-0.04498 -0.1149088,-0.06828 0.037628,0.0233 0.076268,0.04603 0.1149088,0.06828 z"
         fill="#005c8d"
         id="path56"
         style="stroke-width:0.999999" />
      <path
         d="m 4.7531254,10.419593 0.035489,0.0383 z"
         fill="#005c8d"
         id="path58"
         style="stroke-width:0.999999" />
      <path
         d="m 4.9348485,10.607356 c 0.020333,0.02071 0.041679,0.04037 0.063063,0.06003 -0.021384,-0.02071 -0.04273,-0.04037 -0.063063,-0.06003 z"
         fill="#005c8d"
         id="path60"
         style="stroke-width:0.999999" />
      <path
         d="m 4.4746883,10.084734 c 0.00458,0.0062 0.00912,0.01294 0.014218,0.01865 -0.00762,-0.0057 -0.014218,-0.01347 -0.014218,-0.01865 z"
         fill="#005c8d"
         id="path62"
         style="stroke-width:0.999999" />
      <path
         d="m 4.2783343,9.8136495 0.00743,0.010842 z"
         fill="#005c8d"
         id="path64"
         style="stroke-width:0.999999" />
      <path
         d="m 5.6382566,11.172446 c 0.039166,0.02536 0.078294,0.05177 0.1179475,0.07503 -0.039654,-0.02431 -0.078782,-0.04967 -0.1179475,-0.07503 z"
         fill="#005c8d"
         id="path66"
         style="stroke-width:0.999999" />
      <path
         d="m 5.5246984,11.09479 0.083359,0.05691 z"
         fill="#005c8d"
         id="path68"
         style="stroke-width:0.999999" />
      <path
         d="m 5.4015739,11.005767 c 0.027986,0.02123 0.055935,0.0419 0.084409,0.06209 -0.028474,-0.02018 -0.056423,-0.04085 -0.084409,-0.06209 z"
         fill="#005c8d"
         id="path70"
         style="stroke-width:0.999999" />
      <path
         d="m 5.2733473,10.906502 c 0.033576,0.0269 0.06764,0.05173 0.1017034,0.07916 -0.03609,-0.02589 -0.068127,-0.05226 -0.1017034,-0.07916 z"
         fill="#005c8d"
         id="path72"
         style="stroke-width:0.999999" />
      <path
         d="m 5.1693179,10.82003 0.060999,0.05173 z"
         fill="#005c8d"
         id="path74"
         style="stroke-width:0.999999" />
      <path
         d="m 4.5435661,10.176345 0.024347,0.03001 z"
         fill="#005c8d"
         id="path76"
         style="stroke-width:0.999999" />
      <path
         d="m 4.6271122,10.276173 0.012155,0.01362 z"
         fill="#005c8d"
         id="path78"
         style="stroke-width:0.999999" />
      <path
         d="m 4.8838655,10.555623 -0.042092,-0.04243 z"
         fill="#005c8d"
         id="path80"
         style="stroke-width:0.999999" />
      <path
         d="m 8.3999306,11.936591 c -0.065576,0.0026 -0.1311903,0.0042 -0.1972544,0.0042 -0.3419501,1.5e-4 -0.6828874,-0.03733 -1.0169218,-0.111795 0.3340344,0.07447 0.6749717,0.111945 1.0169218,0.111795 0.065576,4.87e-4 0.131678,-0.0016 0.1972544,-0.0042 z"
         fill="#005c8d"
         id="path82"
         style="stroke-width:0.999999" />
      <path
         d="m 9.7247387,11.686291 c -0.050833,0.01759 -0.1016659,0.03481 -0.1525364,0.05173 0.05087,-0.01692 0.1017035,-0.03414 0.1525364,-0.05173 z"
         fill="#005c8d"
         id="path84"
         style="stroke-width:0.999999" />
      <path
         d="m 9.881927,11.628217 c -0.041192,0.01606 -0.083396,0.03155 -0.1250753,0.04656 0.041679,-0.01501 0.083884,-0.0326 0.1250753,-0.04656 z"
         fill="#005c8d"
         id="path86"
         style="stroke-width:0.999999" />
      <path
         d="m 10.219788,11.481308 c -0.03459,0.01654 -0.06865,0.0326 -0.101703,0.04813 0.03459,-0.01553 0.06865,-0.03159 0.101703,-0.04813 z"
         fill="#005c8d"
         id="path88"
         style="stroke-width:0.999999" />
      <path
         d="m 9.1742047,11.838865 c -0.058486,0.01242 -0.1174598,0.02382 -0.1764335,0.03418 0.058974,-0.01035 0.1179474,-0.02382 0.1764335,-0.03418 z"
         fill="#005c8d"
         id="path90"
         style="stroke-width:0.999999" />
      <path
         d="m 8.9783008,11.876042 c -0.1230495,0.02071 -0.2479748,0.03658 -0.3747383,0.04761 0.1267635,-0.01069 0.2516888,-0.02656 0.3747383,-0.04761 z"
         fill="#005c8d"
         id="path92"
         style="stroke-width:0.999999" />
      <path
         d="m 9.5331491,11.74564 c -0.053384,0.01602 -0.1072932,0.03102 -0.16169,0.04554 0.054397,-0.01294 0.108306,-0.02795 0.16169,-0.04554 z"
         fill="#005c8d"
         id="path94"
         style="stroke-width:0.999999" />
      <path
         d="m 9.355215,11.797485 c -0.054247,0.01377 -0.1091689,0.02671 -0.1647663,0.03879 0.054922,-0.01208 0.1098442,-0.02502 0.1647663,-0.03879 z"
         fill="#005c8d"
         id="path96"
         style="stroke-width:0.999999" />
      <path
         d="m 10.061587,11.5542 c -0.04476,0.01966 -0.089474,0.0383 -0.1347544,0.05642 0.045281,-0.02018 0.089511,-0.03677 0.1347544,-0.05642 z"
         fill="#005c8d"
         id="path98"
         style="stroke-width:0.999999" />
      <path
         d="m 8.5992108,11.924249 c -0.064564,0.0051 -0.129127,0.0093 -0.1942157,0.01242 0.065089,-0.0031 0.1296522,-0.0073 0.1942157,-0.01242 z"
         fill="#005c8d"
         id="path100"
         style="stroke-width:0.999999" />
      <path
         d="m 11.12529,10.911079 -0.0063,0.0054 z"
         fill="#005c8d"
         id="path102"
         style="stroke-width:0.999999" />
      <path
         d="m 10.558962,11.301798 c -0.03388,0.02067 -0.06948,0.04085 -0.106768,0.06051 0.0356,-0.02033 0.0712,-0.04052 0.106768,-0.06051 z"
         fill="#005c8d"
         id="path104"
         style="stroke-width:0.999999" />
      <path
         d="m 10.685313,11.224667 c -0.01621,0.01036 -0.03241,0.02071 -0.05065,0.03054 z"
         fill="#005c8d"
         id="path106"
         style="stroke-width:0.999999" />
      <path
         d="m 10.383616,11.399075 -0.08235,0.04243 z"
         fill="#005c8d"
         id="path108"
         style="stroke-width:0.999999" />
      <path
         d="m 10.854618,11.112947 -0.03091,0.0212 z"
         fill="#005c8d"
         id="path110"
         style="stroke-width:0.999999" />
      <path
         d="m 4.8840531,6.9755948 h 1.1481121 c 0.1589889,6.003e-4 0.3164023,-0.031813 0.4626737,-0.095213 0.8135149,-0.3533922 1.3697887,-1.018835 1.6133367,-1.9248621 0.00555,-0.021083 0.017895,-0.039654 0.035002,-0.052784 0.017144,-0.01313 0.038115,-0.020033 0.059574,-0.019658 0.021234,-3.752e-4 0.042017,0.00653 0.058974,0.019545 0.016957,0.013055 0.029112,0.031475 0.034589,0.052409 0.2221644,0.8278831 0.7118114,1.4606878 1.4160073,1.8306617 l 0.050871,0.027949 -0.056948,0.019658 c -0.089361,0.031925 -0.1763585,0.070341 -0.2603173,0.1148712 l -0.012718,0.00672 -0.011705,-0.00724 C 8.8934042,6.6324442 8.4752984,6.157203 8.2256354,5.5883615 l -0.023409,-0.051771 -0.022884,0.051771 c -0.295694,0.6757595 -0.8267202,1.216202 -1.490775,1.5171106 -0.017782,0.00777 -0.1230495,0.049145 -0.2491377,0.09829 -0.1298398,0.05057 -0.2677453,0.076343 -0.4067763,0.076081 H 5.1479718 C 5.2699334,7.4873008 5.321104,7.7299859 5.2935304,7.9700826 5.2659193,8.2102167 5.1611396,8.4343319 4.9954354,8.6075766 4.8774504,8.7324269 4.7647551,8.8585151 4.6573118,8.9858038 c 0.022884,0.044493 0.046781,0.088986 0.070679,0.1324659 0.4259089,0.7700724 1.0873001,1.3775173 1.8835955,1.7299333 0.7962955,0.352417 1.6839402,0.430524 2.5278424,0.22239 C 9.9833678,10.862497 10.737384,10.379602 11.286867,9.6953269 11.836314,9.011089 12.15114,8.1629102 12.183403,7.2798423 h -1.973294 c -0.03568,-7.5e-5 -0.07109,0.00604 -0.104742,0.01812 -0.9197953,0.3290824 -1.5456971,1.021386 -1.8090531,2.0019181 -0.00548,0.021121 -0.01767,0.039728 -0.034701,0.052971 -0.017069,0.013205 -0.037965,0.020258 -0.059386,0.019996 -0.021346,4.502e-4 -0.042205,-0.00649 -0.059161,-0.01962 C 8.1260703,9.3400589 8.113953,9.3214514 8.1086633,9.3004055 8.0082354,8.9176389 7.8355534,8.5583943 7.6002212,8.2427798 7.3588116,7.9221758 7.0508126,7.6597952 6.6982457,7.4743956 l -0.050871,-0.026898 0.050871,-0.020183 C 6.7852057,7.3926127 6.8701024,7.3526966 6.952448,7.307791 L 6.96464,7.301041 6.97687,7.308281 C 7.3215212,7.5137512 7.6210792,7.789037 7.8569741,8.1170315 7.9811866,8.2897135 8.087692,8.474888 8.1747645,8.6696664 l 0.022884,0.051733 0.023409,-0.051733 C 8.5165275,7.9939422 9.0474036,7.4534997 9.7113083,7.1525536 l 0.017295,-0.00777 0.013243,-0.00724 C 9.8216402,7.100295 10.097751,6.9781834 10.292492,6.9781834 H 12.18089 C 12.155905,6.2920698 11.960188,5.6236257 11.612048,5.0355015 11.263908,4.4474149 10.774749,3.9588557 10.190414,3.6156639 9.6060785,3.272472 8.9457002,3.0858607 8.2711412,3.0733231 7.5965823,3.0607856 6.929939,3.2227307 6.333674,3.54398 6.2909818,3.5843538 6.2434877,3.6191228 6.1923171,3.6474654 6.1058823,3.6945506 6.0199352,3.743189 5.9345509,3.7923637 5.455333,4.1292118 5.0544842,4.5688137 4.7601407,5.0802195 4.4657598,5.5916629 4.2850495,6.1624551 4.2306901,6.7525676 c 0.23597,-7.503e-4 0.4655999,0.077619 0.653363,0.2230272 z"
         fill="#005c8d"
         id="path112"
         style="stroke-width:0.999999" />
      <path
         d="M 3.8266901,5.2927801 C 3.6102354,5.8274453 3.4906861,6.3975247 3.4738118,6.9754823 H 3.5755002 C 3.6938116,6.8827825 3.8299914,6.8164933 3.9751373,6.780929 4.0407512,5.9458429 4.3449236,5.1485345 4.850177,4.4871434 4.4912325,4.742246 4.1485321,5.0118295 3.8266901,5.2927801 Z"
         fill="#005c8d"
         id="path114"
         style="stroke-width:0.999999" />
      <path
         d="M 6.551074,3.1522511 C 7.1842163,2.8805555 7.8727309,2.7694058 8.5574189,2.8283608 c 0.6846881,0.058959 1.3450664,0.2862514 1.9243371,0.6623478 0.579308,0.3760851 1.060177,0.8897418 1.401264,1.4967736 0.341087,0.6069943 0.532227,1.2892439 0.556949,1.9880751 h 0.491185 C 12.907107,6.2040218 12.701224,5.4496682 12.330838,4.7760471 11.960451,4.102426 11.436403,3.5292479 10.80281,3.104817 10.169255,2.68039 9.444726,2.4171353 8.6902599,2.3372319 7.9358313,2.2573285 7.173562,2.3631173 6.4676779,2.6456848 c 0.00713,0.013453 0.015269,0.025874 0.021871,0.039845 0.071016,0.1442606 0.092662,0.3085167 0.061525,0.4667213 z"
         fill="#005c8d"
         id="path116"
         style="stroke-width:0.999999" />
      <path
         d="m 12.439444,7.2771412 c -0.03924,1.1043694 -0.492836,2.1514534 -1.267523,2.9258398 -0.774649,0.774387 -1.8114914,1.217253 -2.8972158,1.237436 -0.024422,0 -0.048319,0 -0.072704,0 -0.5274998,7.5e-4 -1.0504227,-0.0993 -1.5416454,-0.294944 C 5.73362,10.774186 4.9637352,10.084621 4.4841797,9.1963011 4.3699462,9.3408467 4.2625029,9.4859176 4.1618499,9.6314762 c 0.4240707,0.7065218 1.0193228,1.2903698 1.7287333,1.6956078 0.7089978,0.405388 1.5087447,0.617798 2.3219594,0.616785 0.8132523,-10e-4 1.612474,-0.215486 2.3204964,-0.622638 0.708022,-0.407151 1.300874,-0.993249 1.721305,-1.7016471 0.420432,-0.7084351 0.654226,-1.5151973 0.678798,-2.3424427 h -0.491147 z"
         fill="#005c8d"
         id="path118"
         style="stroke-width:0.999999" />
      <path
         d="M 4.1263607,2.4220385 C 4.2613025,2.3296013 4.3582415,2.1900076 4.3988328,2.0297019 4.4394242,1.8693961 4.4207791,1.6995127 4.3465368,1.5522359 4.2710189,1.4066624 4.1461686,1.2939145 3.9951328,1.2349145 3.8441346,1.1759182 3.6772187,1.1746803 3.5253763,1.2314293 3.3306392,1.3064558 3.1608158,1.470483 3.0001424,1.5988034 2.8160821,1.7436867 2.6359233,1.8939122 2.4596586,2.0494873 1.8939572,2.5399372 1.3934908,3.1033389 0.97090574,3.7254481 0.4411813,4.5102902 0.12106347,5.421832 0.04196401,6.3705513 0.00768039,6.7489286 -0.0040355,7.1290691 0.00688072,7.5089095 0.03233783,8.009736 0.0959156,8.5077865 0.19704205,8.9985965 -0.13396079,6.9216106 1.1661531,4.9993745 2.5903312,3.6587012 3.071905,3.2087676 3.5852954,2.7954375 4.1263607,2.4220385 Z"
         fill="#3e94c2"
         id="path120"
         style="stroke-width:0.999999" />
      <path
         d="M 6.4899244,2.6850156 C 6.4055154,2.5174544 6.2611573,2.3892503 6.0865996,2.3268589 5.9120418,2.2644676 5.7206023,2.2726496 5.5518218,2.3497206 5.1354043,2.5437562 4.7352307,2.8190308 4.3559155,3.0803347 3.6274099,3.5776686 2.9553606,4.155735 2.3521179,4.8038833 1.2955539,5.9474185 0.30152985,7.4857627 0.34423966,9.1187574 0.35898497,9.67188 0.53745255,10.149485 0.76269695,10.645172 0.99222557,11.132755 1.2634297,11.59888 1.5731694,12.038107 0.70524258,10.669519 1.0189551,9.0225311 1.7902805,7.691683 2.5616022,6.3608349 3.7295184,5.2597668 4.981855,4.3945936 5.3469144,4.1424546 5.7230032,3.9083979 6.110084,3.6924573 6.4721047,3.4901421 6.6927685,3.0974116 6.4899244,2.6850156 Z"
         fill="#3e94c2"
         id="path122"
         style="stroke-width:0.999999" />
      <path
         d="M 5.0545592,7.1406613 C 4.9311345,6.9918389 4.7711326,6.8789935 4.5909101,6.8136422 4.4106501,6.7482909 4.2165845,6.7327596 4.0285213,6.768624 3.6186989,6.8477809 3.367524,7.1722115 3.1132992,7.481636 2.6048458,8.1092636 2.1619838,8.8119589 1.8930118,9.5834569 1.6387833,10.321829 1.5492948,11.135757 1.7811493,11.891723 c 0.1170509,0.376164 0.3049453,0.725542 0.5531977,1.028627 0.1962639,0.24216 0.447949,0.443953 0.6864137,0.642671 0.5470939,0.456896 1.1694507,0.812877 1.8156857,1.10677 C 4.3422225,14.42298 3.8861515,14.074764 3.5841249,13.599748 3.2597319,13.090068 3.157023,12.477972 3.2282079,11.880319 3.3710842,10.664867 4.1083534,9.5725775 4.9111765,8.6981381 5.1145834,8.4771741 5.2671198,8.2510707 5.2976195,7.9411209 5.3236925,7.6521046 5.2363199,7.3643263 5.0545592,7.1406613 Z"
         fill="#3e94c2"
         id="path124"
         style="stroke-width:0.999999" />
    </g>
  </g>
  <defs
     id="defs131">
    <clipPath
       id="clip0_356_3101">
      <rect
         width="140.308"
         height="40"
         fill="#ffffff"
         id="rect128"
         x="0"
         y="0" />
    </clipPath>
  </defs>
</svg>
