<svg width="169" height="53" viewBox="0 0 169 53" fill="none" xmlns="http://www.w3.org/2000/svg">
<path d="M62.0628 8.43701H64.8675C65.5308 8.43701 66.0709 8.97711 66.0709 9.64039V39.6208C66.0709 40.0377 66.412 40.3788 66.8289 40.3788H84.6144C85.2777 40.3788 85.8178 40.9189 85.8178 41.5822V43.7142C85.8178 44.3774 85.2777 44.9176 84.6144 44.9176H62.0628C61.3995 44.9176 60.8594 44.3774 60.8594 43.7142V9.64987C60.8594 8.98659 61.3995 8.44648 62.0628 8.44648V8.43701Z" fill="#035C8C"/>
<path d="M114.699 35.7832H96.3162C96.013 35.7832 95.7382 35.9632 95.615 36.238L92.1186 44.1785C91.9291 44.6143 91.4932 44.8986 91.0194 44.8986H88.3C87.4282 44.8986 86.8502 43.9984 87.2103 43.2025L102.636 9.13819C102.835 8.7118 103.262 8.43701 103.726 8.43701H107.336C107.81 8.43701 108.236 8.7118 108.426 9.13819L123.899 43.2025C124.259 43.9984 123.681 44.8986 122.81 44.8986H119.986C119.512 44.8986 119.076 44.6143 118.887 44.1785L115.39 36.238C115.267 35.9632 114.992 35.7832 114.689 35.7832H114.699ZM113.012 30.7802L106.057 14.9751C105.849 14.5013 105.176 14.5013 104.967 14.9751L98.0123 30.7802C97.8418 31.1686 98.126 31.614 98.5524 31.614H112.462C112.889 31.614 113.173 31.1781 113.002 30.7802H113.012Z" fill="#035C8C"/>
<path d="M130.049 8.43701H132.854C133.517 8.43701 134.057 8.97711 134.057 9.64039V43.7047C134.057 44.368 133.517 44.9081 132.854 44.9081H130.049C129.386 44.9081 128.846 44.368 128.846 43.7047V9.64039C128.846 8.97711 129.386 8.43701 130.049 8.43701Z" fill="#035C8C"/>
<path d="M146.432 44.0459C144.291 43.3353 142.528 42.4351 141.155 41.3644C140.709 41.0138 140.567 40.4074 140.813 39.9052L141.695 38.048C142.007 37.3752 142.86 37.1383 143.467 37.5647C144.651 38.4175 146.063 39.1282 147.693 39.7156C149.862 40.4926 152.099 40.8906 154.382 40.8906C157.405 40.8906 159.66 40.3789 161.157 39.3556C162.654 38.3322 163.393 36.9678 163.393 35.2622C163.393 34.0114 162.986 32.9975 162.171 32.2111C161.356 31.4341 160.352 30.8277 159.148 30.4107C157.955 29.9938 156.258 29.5295 154.07 29.0084C151.322 28.3451 149.114 27.6913 147.427 27.028C145.741 26.3647 144.3 25.3508 143.106 23.9769C141.913 22.603 141.306 20.7552 141.306 18.4243C141.306 16.4818 141.818 14.7288 142.841 13.1654C143.865 11.6019 145.418 10.3512 147.503 9.41311C149.588 8.47504 152.174 8.01074 155.263 8.01074C157.414 8.01074 159.537 8.28554 161.622 8.84459C163.308 9.28993 164.805 9.90584 166.103 10.6734C166.625 10.9766 166.833 11.6114 166.606 12.1705L165.791 14.1414C165.516 14.8047 164.739 15.0794 164.114 14.7383C162.929 14.094 161.678 13.5823 160.371 13.2033C158.637 12.7011 156.931 12.4453 155.263 12.4453C152.307 12.4453 150.099 12.9854 148.621 14.0561C147.143 15.1363 146.404 16.5197 146.404 18.2253C146.404 19.4761 146.821 20.4899 147.655 21.2764C148.489 22.0534 149.521 22.6693 150.753 23.0957C151.985 23.5316 153.662 23.9864 155.785 24.4791C158.523 25.1424 160.731 25.7962 162.399 26.4595C164.066 27.1228 165.497 28.1272 166.7 29.4822C167.894 30.8371 168.501 32.6564 168.501 34.9495C168.501 36.8635 167.98 38.607 166.937 40.1894C165.895 41.7718 164.313 43.0226 162.2 43.9417C160.077 44.8608 157.471 45.3251 154.382 45.3251C151.634 45.3251 148.991 44.8987 146.442 44.0459H146.432Z" fill="#035C8C"/>
<path d="M51.1747 24.6777C50.0756 24.6777 49.1849 25.5684 49.1849 26.6676C49.1849 38.9857 39.1598 49.0107 26.8417 49.0107C17.48 49.0107 9.03734 43.098 5.83463 34.3143C5.65459 33.8121 5.28505 33.4141 4.80181 33.1867C4.31856 32.9593 3.77844 32.9403 3.27624 33.1204C2.24342 33.4994 1.71278 34.6459 2.08232 35.6788C5.85356 46.0449 15.8028 52.9999 26.8323 52.9999C41.3487 52.9999 53.1646 41.184 53.1646 26.6676C53.1646 25.5684 52.2739 24.6777 51.1747 24.6777Z" fill="#035C8C"/>
<path d="M51.1751 24.6779H38.7054L34.2045 14.615C33.8729 13.8759 33.1243 13.4211 32.3094 13.44C31.4945 13.4684 30.7839 13.9801 30.5091 14.7476L25.3544 28.9135L21.4221 19.0874C21.1284 18.3483 20.4177 17.8556 19.6218 17.8366H19.5744C18.7974 17.8366 18.0773 18.2915 17.7551 19.0021L15.1873 24.6684H2.4996C1.40045 24.6684 0.509766 25.5591 0.509766 26.6583C0.509766 27.7574 1.40045 28.6481 2.4996 28.6481H16.4759C17.2529 28.6481 17.9731 28.1933 18.2952 27.4827L19.4607 24.9053L23.592 35.2336C23.8952 35.9916 24.6248 36.4844 25.4397 36.4844H25.4682C26.2925 36.4749 27.0316 35.9442 27.3064 35.1767L32.5653 20.7267L35.5879 27.4732C35.9101 28.1933 36.6208 28.6481 37.4072 28.6481H51.1656C52.2648 28.6481 53.1555 27.7574 53.1555 26.6583C53.1555 25.5591 52.2648 24.6684 51.1656 24.6684L51.1751 24.6779Z" fill="#035C8C"/>
<path d="M51.5822 17.6566C47.811 7.29044 37.8618 0.335449 26.8323 0.335449C12.3159 0.335449 0.5 12.1514 0.5 26.6678C0.5 27.7669 1.3907 28.6576 2.48985 28.6576C3.58901 28.6576 4.47968 27.7669 4.47968 26.6678C4.47968 14.3497 14.5047 4.32462 26.8228 4.32462C36.1846 4.32462 44.6272 10.2278 47.8299 19.0211C48.01 19.5233 48.3795 19.9212 48.8628 20.1487C49.346 20.3761 49.8861 20.395 50.3883 20.215C50.8905 20.0349 51.2885 19.6654 51.5159 19.1821C51.7433 18.6989 51.7623 18.1588 51.5822 17.6566Z" fill="#035C8C"/>
</svg>
