<svg width="141" height="40" viewBox="0 0 141 40" fill="none" xmlns="http://www.w3.org/2000/svg">
<g clip-path="url(#clip0_356_3101)">
<path d="M56.9882 22.177C56.4197 21.7914 55.7509 21.5878 55.0677 21.5922C54.3097 21.5922 53.637 21.9421 53.0497 22.6418C52.456 23.3577 52.142 24.2709 52.1673 25.2073V33.3173H48.9023V19.0792H52.1673V20.3812C53.0799 19.3357 54.2952 18.813 55.8132 18.813C56.9272 18.813 57.7807 18.9859 58.3734 19.3316L56.9882 22.177Z" fill="#A6CBDE"/>
<path d="M72.8208 27.2155H62.828C62.8894 28.3492 63.2725 29.231 63.9773 29.8609C64.6821 30.4908 65.6308 30.8052 66.8235 30.8043C68.3135 30.8043 69.4456 30.4098 70.2199 29.6209L71.4872 32.1601C70.3379 33.1091 68.6211 33.5835 66.3369 33.5835C64.2037 33.5835 62.5163 32.9477 61.2748 31.676C60.0333 30.4043 59.4144 28.6292 59.418 26.3507C59.418 24.1098 60.0993 22.2929 61.4618 20.8998C62.8244 19.5068 64.4598 18.8112 66.3681 18.813C68.3966 18.813 70.0252 19.4291 71.2541 20.6612C72.4829 21.8933 73.0969 23.462 73.096 25.3673C73.0655 25.9912 72.9733 26.6104 72.8208 27.2155ZM62.9446 24.7162H69.8161C69.5902 22.6336 68.458 21.5922 66.4196 21.5922C64.5565 21.5922 63.3981 22.6336 62.9446 24.7162Z" fill="#A6CBDE"/>
<path d="M81.5088 33.5834H80.3324L74.0098 19.0791H77.5892L80.9341 27.7685L84.5258 19.0791H87.9886L81.5088 33.5834Z" fill="#A6CBDE"/>
<path d="M49.8183 13.2408V14.6683H49.1406V10.7843C49.5924 10.765 49.8562 10.7554 49.9321 10.7554C50.5339 10.7554 50.9744 10.8505 51.2536 11.0312C51.3926 11.1281 51.5042 11.2602 51.5775 11.4146C51.6507 11.569 51.683 11.7402 51.671 11.9112C51.671 12.8022 51.1555 13.2472 50.1246 13.2463C50.0487 13.2532 49.9457 13.2477 49.8183 13.2408ZM49.8183 11.3871V12.6284C49.9321 12.6408 50.0229 12.6477 50.0894 12.6477C50.3259 12.6666 50.5624 12.6112 50.767 12.4891C50.8411 12.4282 50.8993 12.3497 50.9364 12.2604C50.9736 12.1711 50.9884 12.0739 50.9798 11.9774C50.9798 11.5747 50.6613 11.3733 50.0243 11.3733C49.9555 11.371 49.8867 11.3738 49.8183 11.3816V11.3871Z" fill="#A6CBDE"/>
<path d="M57.1945 14.663L56.1766 13.0603C56.075 13.0603 55.9313 13.052 55.747 13.0424V14.663H55.0449V10.7832C55.0829 10.7832 55.2292 10.7763 55.484 10.7625C55.7402 10.7501 55.9449 10.7432 56.1007 10.7432C57.0693 10.7432 57.5536 11.1243 57.5536 11.8866C57.5554 12.1124 57.485 12.3326 57.353 12.5141C57.2289 12.6966 57.053 12.8362 56.8489 12.9141L57.9751 14.663H57.1945ZM55.7443 11.3818V12.459C55.869 12.47 55.9652 12.4755 56.0316 12.4755C56.2455 12.4902 56.4594 12.4479 56.6523 12.3528C56.7879 12.2714 56.8489 12.1142 56.8489 11.8797C56.8558 11.7993 56.8395 11.7186 56.8019 11.6475C56.7643 11.5765 56.7072 11.5181 56.6374 11.4797C56.4275 11.3905 56.2004 11.3513 55.9733 11.3652C55.8967 11.3655 55.8202 11.3711 55.7443 11.3818Z" fill="#A6CBDE"/>
<path d="M60.8876 12.6893C60.8731 12.1834 61.0306 11.688 61.3336 11.2866C61.4737 11.1016 61.655 10.9532 61.8627 10.8537C62.0703 10.7542 62.2982 10.7064 62.5276 10.7142C63.0752 10.7142 63.494 10.8871 63.784 11.2328C64.074 11.5786 64.2191 12.0641 64.2191 12.6893C64.2191 13.3146 64.0677 13.8111 63.765 14.1789C63.4623 14.5467 63.0322 14.7306 62.4747 14.7306C62.2492 14.7426 62.0242 14.6986 61.819 14.6025C61.6139 14.5064 61.4347 14.3611 61.297 14.1789C61.025 13.8194 60.8885 13.3229 60.8876 12.6893ZM61.5897 12.6893C61.5698 13.0554 61.6481 13.4201 61.8161 13.7445C61.8822 13.8616 61.9785 13.9581 62.0946 14.0237C62.2106 14.0894 62.3421 14.1216 62.4747 14.1169C62.6235 14.1255 62.7721 14.0966 62.9073 14.0329C63.0425 13.9691 63.1602 13.8724 63.25 13.7513C63.4307 13.5086 63.5211 13.1546 63.5211 12.6893C63.5211 11.7799 63.1917 11.3252 62.533 11.3252C62.3955 11.3196 62.2589 11.3508 62.1369 11.4157C62.0149 11.4805 61.9118 11.5768 61.8377 11.6949C61.6605 11.9942 61.5742 12.3402 61.5897 12.6893Z" fill="#A6CBDE"/>
<path d="M67.2441 13.7652H67.8486C67.9055 13.9914 68.0912 14.1045 68.4057 14.1045C68.4961 14.1137 68.5873 14.0981 68.6697 14.0593C68.7522 14.0205 68.823 13.9599 68.8746 13.8838C68.9793 13.6782 69.0262 13.4472 69.0101 13.2162V10.7832H69.6878V13.1955C69.6878 13.7114 69.5798 14.0939 69.3639 14.3431C69.1479 14.5923 68.8028 14.7164 68.3284 14.7155C68.0521 14.7292 67.7803 14.64 67.564 14.4645C67.4657 14.377 67.3865 14.2696 67.3314 14.1492C67.2764 14.0288 67.2466 13.898 67.2441 13.7652Z" fill="#A6CBDE"/>
<path d="M73.8775 11.3942V12.3031H75.1379V12.888H73.8775V14.0507H75.6055V14.6631H73.2012V10.7832H75.634V11.3942H73.8775Z" fill="#A6CBDE"/>
<path d="M80.5573 11.3942V14.6631H79.8796V11.3942H78.668V10.7832H81.8245V11.3942H80.5573Z" fill="#A6CBDE"/>
<path d="M84.5382 12.6893C84.5221 12.1841 84.6777 11.6887 84.9787 11.2866C85.1188 11.1016 85.3002 10.9532 85.5078 10.8537C85.7155 10.7542 85.9434 10.7064 86.1728 10.7142C86.7203 10.7142 87.1391 10.8871 87.4292 11.2328C87.7192 11.5786 87.866 12.0641 87.8696 12.6893C87.8696 13.3146 87.7183 13.8111 87.4156 14.1789C87.1129 14.5467 86.6828 14.7306 86.1253 14.7306C85.8998 14.7426 85.6748 14.6986 85.4696 14.6025C85.2645 14.5064 85.0853 14.3611 84.9476 14.1789C84.6756 13.8194 84.5391 13.3229 84.5382 12.6893ZM85.2403 12.6893C85.2204 13.0554 85.2986 13.4201 85.4666 13.7445C85.5328 13.8616 85.6291 13.9581 85.7452 14.0237C85.8612 14.0894 85.9927 14.1216 86.1253 14.1169C86.2741 14.1255 86.4227 14.0966 86.5579 14.0329C86.6931 13.9691 86.8108 13.8724 86.9006 13.7513C87.0813 13.5086 87.1716 13.1546 87.1716 12.6893C87.1716 11.7799 86.8423 11.3252 86.1836 11.3252C86.0461 11.3196 85.9095 11.3508 85.7875 11.4157C85.6655 11.4805 85.5624 11.5768 85.4883 11.6949C85.3111 11.9942 85.2248 12.3402 85.2403 12.6893Z" fill="#A6CBDE"/>
<path d="M94.2385 14.667V19.7234H101.252V22.9826H94.2385V29.4569H103.861V32.8636H90.4707V11.2603H104.024V14.667H94.2385Z" fill="#005C8D"/>
<path d="M107.354 32.865V11.2603H111.121V29.4582H120.714V32.865H107.354Z" fill="#005C8D"/>
<path d="M136.149 32.8653L134.598 28.4861H127.323L125.846 32.8653H121.656L130.12 10.9653H131.772L140.311 32.8653H136.149ZM130.946 17.572L128.395 25.551H133.5L130.946 17.572Z" fill="#005C8D"/>
<path d="M15.3435 29.9812C13.6102 28.9098 12.1535 27.4325 11.0946 25.6724C9.98996 27.2764 9.20794 28.9081 8.82031 30.4819C11.1081 30.7812 13.4379 30.6322 15.6973 30.1936C15.578 30.1232 15.4601 30.0543 15.3435 29.9812Z" fill="#A6CBDE"/>
<path d="M0.271061 22.5304C0.193807 22.0159 0.121975 21.5014 0.0664062 21.0601C0.121975 21.5028 0.195162 22.0173 0.271061 22.5304Z" fill="#A6CBDE"/>
<path d="M34.4685 19.078C36.6086 16.5056 38.4694 13.3057 38.5643 9.84794C38.6429 6.95149 37.2849 4.37916 35.1015 2.58612C34.4455 2.02786 33.7586 1.5084 33.0441 1.03031C32.4059 0.638918 31.741 0.294599 31.0545 0L31.0273 0.0275853C34.5986 2.96955 34.4509 7.32802 32.1116 11.5182C33.5725 13.5845 34.3928 16.0481 34.4672 18.5925H34.4577C34.4672 18.758 34.4685 18.9152 34.4685 19.078Z" fill="#A6CBDE"/>
<path d="M2.79058 27.8788C3.2743 28.3424 3.81129 28.7448 4.38986 29.0774C4.41426 27.4292 4.87236 25.6885 5.7208 23.9314C4.97182 23.707 4.25334 23.3882 3.58209 22.9824C2.95864 24.6279 2.66995 26.2789 2.79058 27.8788Z" fill="#A6CBDE"/>
<path d="M0 18.9264C0.00945492 18.2713 0.0567295 17.6603 0.13507 16.6313C0.0432225 17.681 0 18.2975 0 18.9264Z" fill="#A6CBDE"/>
<path d="M0.714907 19.5122C0.483814 20.4869 0.375422 21.4875 0.392339 22.49C0.398601 23.4591 0.605494 24.416 0.999526 25.2982C0.805714 23.9107 0.949379 22.4197 1.39528 20.8846C1.11699 20.4555 0.888669 19.995 0.714907 19.5122Z" fill="#A6CBDE"/>
<path d="M3.04883 29.457C3.28958 30.3908 3.67577 31.2792 4.19273 32.0887C4.13174 32.0004 4.06939 31.9066 4.00569 31.8128C4.44484 32.4749 4.98098 33.0647 5.59549 33.5617C5.06183 32.7029 4.69684 31.7469 4.52072 30.7466C3.98587 30.372 3.49238 29.9396 3.04883 29.457Z" fill="#A6CBDE"/>
<path d="M41.1444 11.1196C40.443 9.46187 39.5803 7.87978 38.5692 6.39697C41.0752 10.3196 39.48 15.2518 37.1136 18.8283C36.1879 20.2102 35.1306 21.4959 33.9571 22.6668C33.0437 25.77 31.0118 28.4073 28.2684 30.0504C25.5251 31.6935 22.273 32.221 19.1636 31.5271C15.3999 32.6816 11.6822 33.0664 8.55277 32.414C8.51105 33.4197 8.6912 34.4221 9.07999 35.3477C21.5206 39.0855 45.5383 24.8005 41.1444 11.1196Z" fill="#A6CBDE"/>
<path d="M2.40625 29.1685L2.49028 29.3464C2.71933 29.7505 2.99717 30.2139 3.28315 30.6746C2.99853 30.2126 2.7234 29.7477 2.49299 29.3436C2.46453 29.2871 2.44013 29.2278 2.40625 29.1685Z" fill="#A6CBDE"/>
<path d="M1.83094 27.9274C1.72522 27.6874 1.62357 27.4516 1.52734 27.2378C1.62628 27.4474 1.72387 27.6874 1.83094 27.9274Z" fill="#A6CBDE"/>
<path d="M42.6307 17.8589C42.5833 17.0313 42.3813 15.71 42.3393 15.5059C43.4154 26.6572 22.416 41.6305 10.0215 36.8844C10.7141 37.7327 11.6641 38.4816 12.8975 39.0913L12.7714 39.0333C13.8056 39.5326 15.0172 39.7547 16.1462 39.8829C17.3595 40.0151 18.5827 40.0225 19.7975 39.905C22.5081 39.6609 25.1808 38.9147 27.695 37.8568C32.7869 35.7231 37.6783 32.1563 40.5245 27.2641C41.2831 25.9799 41.8628 24.5948 42.2471 23.1484C42.693 21.4284 42.6686 19.6243 42.6307 17.8589Z" fill="#A6CBDE"/>
<path d="M11.2081 38.2732C10.8245 38.0567 10.384 37.7863 9.67383 37.3491C10.3366 37.7781 10.7283 38.0181 11.2081 38.2732Z" fill="#A6CBDE"/>
<path d="M8.05164 36.1532C7.70197 35.8621 7.30079 35.5021 6.6543 34.9229C7.25606 35.4897 7.59625 35.7959 8.05164 36.1532Z" fill="#A6CBDE"/>
<path d="M13.5 28.5962L13.6545 28.7341C13.6016 28.6886 13.5529 28.6431 13.5 28.5962Z" fill="#005C8D"/>
<path d="M15.6676 30.1742C15.5646 30.1149 15.463 30.0543 15.3613 29.9922C15.4616 30.0543 15.5646 30.1149 15.6676 30.1742Z" fill="#005C8D"/>
<path d="M12.6699 27.7744L12.7645 27.8765L12.6699 27.7744Z" fill="#005C8D"/>
<path d="M13.1543 28.2749C13.2085 28.3301 13.2654 28.3825 13.3224 28.4349C13.2654 28.3797 13.2085 28.3273 13.1543 28.2749Z" fill="#005C8D"/>
<path d="M11.9277 26.8818C11.9399 26.8984 11.952 26.9163 11.9656 26.9315C11.9453 26.9163 11.9277 26.8956 11.9277 26.8818Z" fill="#005C8D"/>
<path d="M11.4043 26.1592L11.4241 26.1881L11.4043 26.1592Z" fill="#005C8D"/>
<path d="M15.0293 29.7812C15.1337 29.8488 15.238 29.9192 15.3437 29.9812C15.238 29.9164 15.1337 29.8488 15.0293 29.7812Z" fill="#005C8D"/>
<path d="M14.7266 29.5742L14.9488 29.7259L14.7266 29.5742Z" fill="#005C8D"/>
<path d="M14.3984 29.3369C14.473 29.3935 14.5475 29.4486 14.6234 29.5024C14.5475 29.4486 14.473 29.3935 14.3984 29.3369Z" fill="#005C8D"/>
<path d="M14.0566 29.0723C14.1461 29.144 14.2369 29.2102 14.3277 29.2833C14.2315 29.2143 14.1461 29.144 14.0566 29.0723Z" fill="#005C8D"/>
<path d="M13.7793 28.8418L13.9419 28.9797L13.7793 28.8418Z" fill="#005C8D"/>
<path d="M12.1113 27.126L12.1762 27.206L12.1113 27.126Z" fill="#005C8D"/>
<path d="M12.334 27.3921L12.3664 27.4284L12.334 27.3921Z" fill="#005C8D"/>
<path d="M13.0184 28.137L12.9062 28.0239L13.0184 28.137Z" fill="#005C8D"/>
<path d="M22.3908 31.8181C22.216 31.825 22.0411 31.8292 21.865 31.8292C20.9535 31.8296 20.0447 31.7297 19.1543 31.5312C20.0447 31.7297 20.9535 31.8296 21.865 31.8292C22.0398 31.8305 22.216 31.825 22.3908 31.8181Z" fill="#005C8D"/>
<path d="M25.9222 31.1509C25.7867 31.1978 25.6512 31.2437 25.5156 31.2888C25.6512 31.2437 25.7867 31.1978 25.9222 31.1509Z" fill="#005C8D"/>
<path d="M26.3412 30.9961C26.2314 31.0389 26.1189 31.0802 26.0078 31.1202C26.1189 31.0802 26.2314 31.0333 26.3412 30.9961Z" fill="#005C8D"/>
<path d="M27.2418 30.6045C27.1496 30.6486 27.0588 30.6914 26.9707 30.7328C27.0629 30.6914 27.1537 30.6486 27.2418 30.6045Z" fill="#005C8D"/>
<path d="M24.4547 31.5576C24.2988 31.5907 24.1416 31.6211 23.9844 31.6487C24.1416 31.6211 24.2988 31.5852 24.4547 31.5576Z" fill="#005C8D"/>
<path d="M23.9325 31.6567C23.6045 31.7119 23.2715 31.7542 22.9336 31.7836C23.2715 31.7551 23.6045 31.7128 23.9325 31.6567Z" fill="#005C8D"/>
<path d="M25.4115 31.3091C25.2692 31.3518 25.1255 31.3918 24.9805 31.4305C25.1255 31.396 25.2692 31.356 25.4115 31.3091Z" fill="#005C8D"/>
<path d="M24.9372 31.4473C24.7926 31.484 24.6462 31.5185 24.498 31.5507C24.6444 31.5185 24.7908 31.484 24.9372 31.4473Z" fill="#005C8D"/>
<path d="M26.8201 30.7988C26.7008 30.8512 26.5816 30.9009 26.4609 30.9492C26.5816 30.8954 26.6995 30.8512 26.8201 30.7988Z" fill="#005C8D"/>
<path d="M22.922 31.7852C22.7499 31.7989 22.5778 31.81 22.4043 31.8183C22.5778 31.81 22.7499 31.7989 22.922 31.7852Z" fill="#005C8D"/>
<path d="M29.6555 29.0845L29.6387 29.0988L29.6555 29.0845Z" fill="#005C8D"/>
<path d="M28.1459 30.126C28.0556 30.1811 27.9607 30.2349 27.8613 30.2873C27.9562 30.2331 28.0511 30.1793 28.1459 30.126Z" fill="#005C8D"/>
<path d="M28.4827 29.9204C28.4395 29.948 28.3963 29.9756 28.3477 30.0018L28.4827 29.9204Z" fill="#005C8D"/>
<path d="M27.6785 30.3853L27.459 30.4984L27.6785 30.3853Z" fill="#005C8D"/>
<path d="M28.934 29.6226L28.8516 29.6791L28.934 29.6226Z" fill="#005C8D"/>
<path d="M13.0189 18.5941H16.0793C16.5031 18.5957 16.9227 18.5093 17.3126 18.3403C19.4811 17.3983 20.9639 15.6245 21.6131 13.2094C21.6279 13.1532 21.6608 13.1037 21.7064 13.0687C21.7521 13.0337 21.808 13.0153 21.8652 13.0163C21.9218 13.0153 21.9772 13.0337 22.0224 13.0684C22.0676 13.1032 22.1 13.1523 22.1146 13.2081C22.7068 15.4149 24.012 17.1017 25.8891 18.0879L26.0247 18.1624L25.8729 18.2148C25.6347 18.2999 25.4028 18.4023 25.179 18.521L25.1451 18.5389L25.1139 18.5196C23.7062 17.6794 22.5917 16.4126 21.9262 14.8963L21.8638 14.7583L21.8028 14.8963C21.0146 16.6976 19.5991 18.1382 17.829 18.9403C17.7816 18.961 17.501 19.0713 17.1649 19.2023C16.8188 19.3371 16.4512 19.4058 16.0806 19.4051H13.7224C14.0475 19.9581 14.1839 20.605 14.1104 21.245C14.0368 21.8851 13.7575 22.4825 13.3158 22.9443C13.0013 23.2771 12.7009 23.6132 12.4145 23.9525C12.4755 24.0711 12.5392 24.1897 12.6029 24.3056C13.7382 26.3583 15.5012 27.9775 17.6238 28.9169C19.7464 29.8563 22.1125 30.0645 24.362 29.5097C26.6116 28.955 28.6215 27.6678 30.0862 25.8438C31.5508 24.0199 32.39 21.759 32.476 19.4051H27.216C27.1209 19.4049 27.0265 19.4212 26.9368 19.4534C24.485 20.3306 22.8166 22.176 22.1146 24.7897C22.1 24.846 22.0675 24.8956 22.0221 24.9309C21.9766 24.9661 21.9209 24.9849 21.8638 24.9842C21.8069 24.9854 21.7513 24.9669 21.7061 24.9319C21.6608 24.8968 21.6285 24.8472 21.6144 24.7911C21.3467 23.7708 20.8864 22.8132 20.2591 21.9719C19.6156 21.1173 18.7946 20.4179 17.8548 19.9237L17.7192 19.852L17.8548 19.7982C18.0866 19.7057 18.3129 19.5993 18.5324 19.4796L18.5649 19.4616L18.5975 19.4809C19.5162 20.0286 20.3147 20.7624 20.9435 21.6367C21.2746 22.097 21.5585 22.5906 21.7906 23.1098L21.8516 23.2477L21.914 23.1098C22.7016 21.3086 24.1167 19.868 25.8864 19.0658L25.9325 19.0451L25.9678 19.0258C26.1805 18.9265 26.9165 18.601 27.4356 18.601H32.4693C32.4027 16.7721 31.881 14.9903 30.953 13.4226C30.025 11.855 28.7211 10.5527 27.1635 9.63789C25.6059 8.72308 23.8456 8.22565 22.0475 8.19223C20.2494 8.15881 18.4724 8.59049 16.883 9.44681C16.7692 9.55443 16.6426 9.64711 16.5062 9.72266C16.2758 9.84817 16.0467 9.97782 15.8191 10.1089C14.5417 11.0068 13.4732 12.1786 12.6886 13.5418C11.9039 14.9051 11.4222 16.4266 11.2773 17.9996C11.9063 17.9976 12.5184 18.2065 13.0189 18.5941Z" fill="#005C8D"/>
<path d="M10.2004 14.1084C9.62342 15.5336 9.30475 17.0532 9.25977 18.5938H9.53083C9.8462 18.3467 10.2092 18.17 10.5961 18.0752C10.771 15.8492 11.5818 13.7239 12.9286 11.9609C11.9718 12.6409 11.0583 13.3595 10.2004 14.1084Z" fill="#005C8D"/>
<path d="M17.4625 8.40262C19.1502 7.67839 20.9855 7.38211 22.8106 7.53926C24.6357 7.69642 26.396 8.30229 27.9401 9.30481C29.4843 10.3073 30.7661 11.6765 31.6753 13.2946C32.5845 14.9126 33.094 16.7312 33.1599 18.594H34.4692C34.4051 16.5374 33.8563 14.5266 32.869 12.731C31.8817 10.9354 30.4848 9.40754 28.7959 8.27618C27.1071 7.14483 25.1758 6.4431 23.1647 6.23011C21.1537 6.01712 19.1218 6.29911 17.2402 7.05232C17.2592 7.08818 17.2809 7.12129 17.2985 7.15853C17.4878 7.54307 17.5455 7.98091 17.4625 8.40262Z" fill="#005C8D"/>
<path d="M33.1585 19.3979C33.0539 22.3417 31.8448 25.1328 29.7798 27.197C27.7149 29.2612 24.9511 30.4417 22.057 30.4955C21.9919 30.4955 21.9282 30.4955 21.8632 30.4955C20.4571 30.4975 19.0632 30.2308 17.7538 29.7093C15.2835 28.7196 13.2313 26.8815 11.953 24.5136C11.6485 24.8989 11.3621 25.2856 11.0938 25.6736C12.2242 27.5569 13.8109 29.1132 15.7019 30.1934C17.5918 31.274 19.7236 31.8402 21.8913 31.8375C24.0591 31.8348 26.1895 31.2631 28.0768 30.1778C29.9641 29.0925 31.5444 27.5302 32.6651 25.6419C33.7858 23.7535 34.409 21.603 34.4745 19.3979H33.1653H33.1585Z" fill="#005C8D"/>
<path d="M10.9992 6.45617C11.3589 6.20977 11.6173 5.83767 11.7255 5.41036C11.8337 4.98305 11.784 4.53021 11.5861 4.13763C11.3848 3.74959 11.052 3.44905 10.6494 3.29178C10.2469 3.13452 9.80197 3.13122 9.39722 3.28249C8.87813 3.48248 8.42545 3.91971 7.99716 4.26176C7.50653 4.64796 7.0263 5.0484 6.55645 5.4631C5.04852 6.77044 3.71448 8.27224 2.58804 9.93053C1.17601 12.0226 0.322706 14.4524 0.111859 16.9813C0.0204728 17.9899 -0.010757 19.0032 0.0183412 20.0157C0.0861995 21.3507 0.255672 22.6783 0.525234 23.9866C-0.357085 18.4502 3.10849 13.3263 6.90477 9.75261C8.18845 8.55327 9.55694 7.4515 10.9992 6.45617Z" fill="#3E94C2"/>
<path d="M17.2995 7.15716C17.0745 6.71051 16.6897 6.36877 16.2244 6.20246C15.7591 6.03615 15.2488 6.05796 14.7989 6.2634C13.6889 6.78062 12.6222 7.51439 11.6111 8.21092C9.6692 9.53661 7.87779 11.0775 6.26979 12.8052C3.45342 15.8534 0.803756 19.954 0.917603 24.3069C0.956908 25.7813 1.43263 27.0544 2.03304 28.3757C2.64487 29.6754 3.36779 30.9179 4.19343 32.0887C1.87989 28.4406 2.71612 24.0504 4.77216 20.5029C6.82819 16.9554 9.94138 14.0204 13.2796 11.7142C14.2527 11.0421 15.2552 10.4182 16.287 9.84259C17.252 9.3033 17.8402 8.25644 17.2995 7.15716Z" fill="#3E94C2"/>
<path d="M13.4734 19.0341C13.1444 18.6374 12.7179 18.3366 12.2375 18.1624C11.757 17.9882 11.2397 17.9468 10.7384 18.0424C9.64598 18.2534 8.97645 19.1182 8.29879 19.943C6.94346 21.616 5.76297 23.4891 5.046 25.5456C4.36833 27.5138 4.12979 29.6834 4.74782 31.6985C5.05983 32.7012 5.56068 33.6325 6.22242 34.4404C6.74558 35.0859 7.41647 35.6238 8.05212 36.1535C9.51045 37.3714 11.1694 38.3203 12.892 39.1037C11.5746 38.4458 10.3589 37.5176 9.55382 36.2514C8.68912 34.8928 8.41534 33.2612 8.60509 31.6681C8.98594 28.4282 10.9512 25.5166 13.0912 23.1857C13.6334 22.5967 14.04 21.994 14.1213 21.1678C14.1908 20.3974 13.9579 19.6303 13.4734 19.0341Z" fill="#3E94C2"/>
</g>
<defs>
<clipPath id="clip0_356_3101">
<rect width="140.308" height="40" fill="white"/>
</clipPath>
</defs>
</svg>
